<svg xmlns="http://www.w3.org/2000/svg" xmlns:xlink="http://www.w3.org/1999/xlink" width="907.837" height="446.099" viewBox="0 0 907.837 446.099"><defs><clipPath id="a"><path d="M0-64.7H907.837V-510.8H0Z" transform="translate(0 510.8)"/></clipPath></defs><g clip-path="url(#a)"><g transform="translate(135.99 62.081)"><path d="M-16.57-4.972a9.326,9.326,0,0,0-7.178-3.24H-34.175a10.184,10.184,0,0,1-7.5-2.907,10.014,10.014,0,0,1-2.93-7.437V-28.9a9.221,9.221,0,0,0-3.257-7.121,9.36,9.36,0,0,0-7.178-3.231h-73.007a9.686,9.686,0,0,0-7.5,3.231,9.663,9.663,0,0,0-2.939,7.121v10.344a10.021,10.021,0,0,0,2.939,7.437,10.181,10.181,0,0,0,7.5,2.907h73.007a9.34,9.34,0,0,1,7.178,3.24A9.2,9.2,0,0,1-44.6,2.141V12.485a9.538,9.538,0,0,1-3.257,7.436,9.818,9.818,0,0,1-7.178,2.915h-73.007a9.66,9.66,0,0,0-7.5,3.231,9.647,9.647,0,0,0-2.939,7.113V74.567A10.021,10.021,0,0,0-135.542,82a10.187,10.187,0,0,0,7.5,2.915h10.427a9.344,9.344,0,0,1,7.17,3.231,9.179,9.179,0,0,1,3.257,7.112v10.345a10.013,10.013,0,0,0,2.939,7.438,10.193,10.193,0,0,0,7.5,2.914h73.007a9.81,9.81,0,0,0,7.178-2.914,9.53,9.53,0,0,0,3.257-7.438V2.141A9.2,9.2,0,0,0-16.57-4.972M-44.6,74.567A9.538,9.538,0,0,1-47.86,82a9.818,9.818,0,0,1-7.178,2.915H-96.755a10.187,10.187,0,0,1-7.5-2.915,10.021,10.021,0,0,1-2.939-7.436V64.221a9.646,9.646,0,0,1,2.939-7.112,9.66,9.66,0,0,1,7.5-3.231h41.717a9.334,9.334,0,0,1,7.178,3.231A9.206,9.206,0,0,1-44.6,64.221Z" transform="translate(138.481 39.253)"/></g><g transform="translate(167.28 155.212)"><path d="M-8.507-1.5V8.844a9.54,9.54,0,0,1-3.257,7.437A9.822,9.822,0,0,1-18.943,19.2H-60.659a10.192,10.192,0,0,1-7.5-2.915A10.023,10.023,0,0,1-71.1,8.844V-1.5a9.644,9.644,0,0,1,2.938-7.112,9.659,9.659,0,0,1,7.5-3.231h41.717a9.331,9.331,0,0,1,7.178,3.231A9.2,9.2,0,0,1-8.507-1.5" transform="translate(71.095 11.844)" fill="#41bbac"/></g><g transform="translate(271.587 62.083)"><path d="M-1.418-22.511a10.191,10.191,0,0,1-7.5-2.91,10.027,10.027,0,0,1-2.933-7.437V-167.374a9.645,9.645,0,0,1,2.933-7.113,9.684,9.684,0,0,1,7.5-3.234H71.594a9.338,9.338,0,0,1,7.171,3.234,9.2,9.2,0,0,1,3.259,7.113v10.348a10.022,10.022,0,0,0,2.933,7.436,10.19,10.19,0,0,0,7.5,2.912h10.43a9.334,9.334,0,0,1,7.171,3.232,9.2,9.2,0,0,1,3.259,7.114V-32.859a9.533,9.533,0,0,1-3.259,7.437,9.8,9.8,0,0,1-7.171,2.91H92.455a10.189,10.189,0,0,1-7.5-2.91,10.027,10.027,0,0,1-2.933-7.437V-136.331a9.2,9.2,0,0,0-3.259-7.114,9.334,9.334,0,0,0-7.171-3.232H29.873a9.678,9.678,0,0,0-7.5,3.232,9.646,9.646,0,0,0-2.933,7.114V-32.859a9.531,9.531,0,0,1-3.26,7.437,9.8,9.8,0,0,1-7.17,2.91Z" transform="translate(11.848 177.721)"/></g><g transform="translate(407.181 0)"><path d="M-16.569-.469A9.339,9.339,0,0,0-23.739-3.7H-34.166a9.683,9.683,0,0,0-7.5,3.231A9.645,9.645,0,0,0-44.6,6.644V48.037a9.511,9.511,0,0,1-3.257,7.437,9.8,9.8,0,0,1-7.17,2.907h-73.016a9.7,9.7,0,0,0-7.5,3.23,9.69,9.69,0,0,0-2.931,7.122V172.2a10.048,10.048,0,0,0,2.931,7.437,10.2,10.2,0,0,0,7.5,2.915h10.436a9.342,9.342,0,0,1,7.17,3.231,9.2,9.2,0,0,1,3.257,7.112v10.345a10.01,10.01,0,0,0,2.939,7.437,10.192,10.192,0,0,0,7.5,2.915h73.008a9.8,9.8,0,0,0,7.17-2.915,9.506,9.506,0,0,0,3.266-7.437V6.644A9.185,9.185,0,0,0-16.569-.469M-44.6,172.2a9.511,9.511,0,0,1-3.257,7.437,9.8,9.8,0,0,1-7.17,2.915H-96.746a10.192,10.192,0,0,1-7.5-2.915,10.023,10.023,0,0,1-2.939-7.437V99.775a9.642,9.642,0,0,1,2.939-7.112,9.663,9.663,0,0,1,7.5-3.24h41.718a9.319,9.319,0,0,1,7.17,3.24A9.174,9.174,0,0,1-44.6,99.775Z" transform="translate(138.472 3.7)"/></g><g transform="translate(438.471 93.123)"><path d="M-8.506-1.5V70.924a9.511,9.511,0,0,1-3.257,7.437,9.8,9.8,0,0,1-7.17,2.915H-60.65a10.19,10.19,0,0,1-7.5-2.915,10.023,10.023,0,0,1-2.939-7.437V-1.5a9.645,9.645,0,0,1,2.939-7.113,9.664,9.664,0,0,1,7.5-3.239h41.717a9.321,9.321,0,0,1,7.17,3.239A9.177,9.177,0,0,1-8.506-1.5" transform="translate(71.086 11.854)" fill="#4afcfe"/></g><g transform="translate(542.776 62.083)"><path d="M-1.418-22.511a10.191,10.191,0,0,1-7.5-2.91,10.027,10.027,0,0,1-2.933-7.437V-136.331a9.646,9.646,0,0,1,2.933-7.114,9.679,9.679,0,0,1,7.5-3.232H9.013a9.8,9.8,0,0,0,7.17-2.912,9.527,9.527,0,0,0,3.26-7.436v-10.348a9.645,9.645,0,0,1,2.933-7.113,9.684,9.684,0,0,1,7.5-3.234H71.594a9.338,9.338,0,0,1,7.171,3.234,9.2,9.2,0,0,1,3.259,7.113v10.348a9.529,9.529,0,0,1-3.259,7.436,9.8,9.8,0,0,1-7.171,2.912H29.873a9.679,9.679,0,0,0-7.5,3.232,9.646,9.646,0,0,0-2.933,7.114V-32.859a9.531,9.531,0,0,1-3.26,7.437,9.8,9.8,0,0,1-7.17,2.91Z" transform="translate(11.848 177.721)"/></g><g transform="translate(647.082 62.082)"><path d="M-4.651-13.976a9.657,9.657,0,0,1,7.5-3.231H81.075a5.635,5.635,0,0,0,3.586-1.3,5.268,5.268,0,0,0,1.629-3.88V-68.945a9.2,9.2,0,0,0-3.258-7.112,9.319,9.319,0,0,0-7.169-3.24H65.426a10.2,10.2,0,0,1-7.5-2.907A10.017,10.017,0,0,1,55-89.642V-99.986a9.222,9.222,0,0,0-3.258-7.122,9.341,9.341,0,0,0-7.17-3.23H2.846a9.686,9.686,0,0,0-7.5,3.23,9.658,9.658,0,0,0-2.93,7.122v10.344A9.518,9.518,0,0,1-10.847-82.2a9.781,9.781,0,0,1-7.17,2.907H-28.444a9.662,9.662,0,0,0-7.5,3.24,9.634,9.634,0,0,0-2.93,7.112V3.481a10.017,10.017,0,0,0,2.93,7.437,10.19,10.19,0,0,0,7.5,2.915h10.428a9.329,9.329,0,0,1,7.17,3.231,9.185,9.185,0,0,1,3.266,7.112V34.522a10,10,0,0,0,2.93,7.437,10.19,10.19,0,0,0,7.5,2.915H75.861a9.8,9.8,0,0,0,7.169-2.915,9.525,9.525,0,0,0,3.258-7.437V24.177a9.2,9.2,0,0,0-3.258-7.112,9.342,9.342,0,0,0-7.169-3.231H2.846a10.19,10.19,0,0,1-7.5-2.915,10.017,10.017,0,0,1-2.93-7.437V-6.864a9.637,9.637,0,0,1,2.93-7.112m-2.93-54.968a9.634,9.634,0,0,1,2.93-7.112,9.662,9.662,0,0,1,7.5-3.24H44.571a9.319,9.319,0,0,1,7.17,3.24A9.2,9.2,0,0,1,55-68.945V-58.6a9.537,9.537,0,0,1-3.258,7.437,9.8,9.8,0,0,1-7.17,2.915H2.846a10.19,10.19,0,0,1-7.5-2.915A10.017,10.017,0,0,1-7.581-58.6Z" transform="translate(38.871 110.338)"/></g><g transform="translate(678.372 93.123)"><path d="M-8.506-1.5V8.842a9.54,9.54,0,0,1-3.257,7.437,9.8,9.8,0,0,1-7.17,2.915H-60.658a10.192,10.192,0,0,1-7.5-2.915,10.017,10.017,0,0,1-2.93-7.437V-1.5a9.637,9.637,0,0,1,2.93-7.113,9.666,9.666,0,0,1,7.5-3.239h41.726a9.321,9.321,0,0,1,7.17,3.239A9.205,9.205,0,0,1-8.506-1.5" transform="translate(71.086 11.854)" fill="#55dafd"/></g><g transform="translate(782.669 62.081)"><path d="M-16.57-4.972a9.326,9.326,0,0,0-7.178-3.24H-34.175a10.181,10.181,0,0,1-7.5-2.907A10.011,10.011,0,0,1-44.6-18.557V-28.9a9.2,9.2,0,0,0-3.265-7.121,9.331,9.331,0,0,0-7.17-3.231h-73.007a9.686,9.686,0,0,0-7.5,3.231,9.663,9.663,0,0,0-2.939,7.121v10.344a10.021,10.021,0,0,0,2.939,7.437,10.181,10.181,0,0,0,7.5,2.907h73.007a9.31,9.31,0,0,1,7.17,3.24A9.186,9.186,0,0,1-44.6,2.141V12.485a9.519,9.519,0,0,1-3.265,7.436,9.786,9.786,0,0,1-7.17,2.915h-73.007a9.66,9.66,0,0,0-7.5,3.231,9.647,9.647,0,0,0-2.939,7.113V74.567A10.021,10.021,0,0,0-135.542,82a10.187,10.187,0,0,0,7.5,2.915h10.427a9.343,9.343,0,0,1,7.17,3.231,9.176,9.176,0,0,1,3.257,7.112v10.345a10.013,10.013,0,0,0,2.939,7.438,10.193,10.193,0,0,0,7.5,2.914h73.007a9.81,9.81,0,0,0,7.178-2.914,9.53,9.53,0,0,0,3.257-7.438V2.141A9.2,9.2,0,0,0-16.57-4.972M-44.6,74.567A9.519,9.519,0,0,1-47.868,82a9.786,9.786,0,0,1-7.17,2.915H-96.755a10.187,10.187,0,0,1-7.5-2.915,10.021,10.021,0,0,1-2.939-7.436V64.221a9.646,9.646,0,0,1,2.939-7.112,9.66,9.66,0,0,1,7.5-3.231h41.717a9.3,9.3,0,0,1,7.17,3.231A9.188,9.188,0,0,1-44.6,64.221Z" transform="translate(138.481 39.253)"/></g><g transform="translate(813.959 155.212)"><path d="M-8.507-1.5V8.844a9.518,9.518,0,0,1-3.266,7.437,9.787,9.787,0,0,1-7.17,2.915H-60.66a10.192,10.192,0,0,1-7.5-2.915A10.023,10.023,0,0,1-71.1,8.844V-1.5a9.645,9.645,0,0,1,2.939-7.112,9.659,9.659,0,0,1,7.5-3.231h41.717a9.3,9.3,0,0,1,7.17,3.231A9.185,9.185,0,0,1-8.507-1.5" transform="translate(71.096 11.844)" fill="#2e95b4"/></g><g transform="translate(0 228.804)"><path d="M-16.569-4.971A9.34,9.34,0,0,0-23.739-8.2H-34.166a10.185,10.185,0,0,1-7.5-2.906,10.017,10.017,0,0,1-2.93-7.437V-28.9a9.183,9.183,0,0,0-3.266-7.112,9.34,9.34,0,0,0-7.17-3.232H-96.746a9.686,9.686,0,0,0-7.5,3.232,9.643,9.643,0,0,0-2.939,7.112v10.352a9.537,9.537,0,0,1-3.257,7.437,9.794,9.794,0,0,1-7.17,2.906h-10.428a9.686,9.686,0,0,0-7.5,3.232,9.648,9.648,0,0,0-2.939,7.12V167.7a9.651,9.651,0,0,0,2.939,7.122,9.688,9.688,0,0,0,7.5,3.231h10.428a9.342,9.342,0,0,0,7.17-3.231,9.207,9.207,0,0,0,3.257-7.122V126.313a10.023,10.023,0,0,1,2.939-7.437,10.185,10.185,0,0,1,7.5-2.906h41.718a9.8,9.8,0,0,0,7.17-2.915,9.52,9.52,0,0,0,3.266-7.438V95.272a9.637,9.637,0,0,1,2.93-7.112,9.659,9.659,0,0,1,7.5-3.231h10.428a9.8,9.8,0,0,0,7.17-2.915A9.52,9.52,0,0,0-13.3,74.575V2.149a9.188,9.188,0,0,0-3.266-7.12M-44.593,74.575a9.52,9.52,0,0,1-3.266,7.438,9.8,9.8,0,0,1-7.17,2.915H-96.746a10.192,10.192,0,0,1-7.5-2.915,10.025,10.025,0,0,1-2.939-7.438V2.149a9.648,9.648,0,0,1,2.939-7.12,9.686,9.686,0,0,1,7.5-3.232h41.718a9.34,9.34,0,0,1,7.17,3.232,9.188,9.188,0,0,1,3.266,7.12Z" transform="translate(138.472 39.244)"/></g><g transform="translate(31.289 259.845)"><path d="M-8.507-1.5V70.924a9.52,9.52,0,0,1-3.266,7.438,9.8,9.8,0,0,1-7.17,2.914H-60.66a10.192,10.192,0,0,1-7.5-2.914A10.025,10.025,0,0,1-71.1,70.924V-1.5a9.647,9.647,0,0,1,2.939-7.12,9.686,9.686,0,0,1,7.5-3.232h41.717a9.34,9.34,0,0,1,7.17,3.232A9.186,9.186,0,0,1-8.507-1.5" transform="translate(71.096 11.854)" fill="#59d3c8"/></g><g transform="translate(135.595 228.804)"><path d="M-16.569-4.971A9.34,9.34,0,0,0-23.739-8.2H-34.166a10.184,10.184,0,0,1-7.5-2.906A10.023,10.023,0,0,1-44.6-18.547V-28.9a9.175,9.175,0,0,0-3.257-7.112,9.34,9.34,0,0,0-7.17-3.232H-96.754a9.669,9.669,0,0,0-7.489,3.232,9.643,9.643,0,0,0-2.939,7.112v10.352a9.537,9.537,0,0,1-3.257,7.437,9.794,9.794,0,0,1-7.17,2.906h-10.436a9.7,9.7,0,0,0-7.5,3.232,9.641,9.641,0,0,0-2.931,7.12V74.575a10.019,10.019,0,0,0,2.931,7.438,10.2,10.2,0,0,0,7.5,2.915h10.436a9.313,9.313,0,0,1,7.17,3.231,9.2,9.2,0,0,1,3.257,7.112v10.344a10.025,10.025,0,0,0,2.939,7.438,10.173,10.173,0,0,0,7.489,2.915h41.726a9.8,9.8,0,0,0,7.17-2.915,9.513,9.513,0,0,0,3.257-7.438V95.272a9.645,9.645,0,0,1,2.939-7.112,9.657,9.657,0,0,1,7.5-3.231h10.428a9.8,9.8,0,0,0,7.17-2.915,9.513,9.513,0,0,0,3.257-7.438V2.149a9.179,9.179,0,0,0-3.257-7.12M-44.6,74.575a9.513,9.513,0,0,1-3.257,7.438,9.8,9.8,0,0,1-7.17,2.915H-96.754a10.173,10.173,0,0,1-7.489-2.915,10.025,10.025,0,0,1-2.939-7.438V2.149a9.648,9.648,0,0,1,2.939-7.12A9.669,9.669,0,0,1-96.754-8.2h41.726a9.34,9.34,0,0,1,7.17,3.232A9.179,9.179,0,0,1-44.6,2.149Z" transform="translate(138.472 39.244)"/></g><g transform="translate(166.885 259.845)"><path d="M-8.506-1.5V70.924a9.513,9.513,0,0,1-3.257,7.438,9.8,9.8,0,0,1-7.17,2.914H-60.658a10.17,10.17,0,0,1-7.489-2.914,10.025,10.025,0,0,1-2.939-7.438V-1.5a9.647,9.647,0,0,1,2.939-7.12,9.666,9.666,0,0,1,7.489-3.232h41.726a9.34,9.34,0,0,1,7.17,3.232A9.178,9.178,0,0,1-8.506-1.5" transform="translate(71.086 11.854)" fill="#40ffc9"/></g><g transform="translate(271.19 228.804)"><path d="M-1.418-22.511a10.191,10.191,0,0,1-7.5-2.91,10.025,10.025,0,0,1-2.933-7.437V-167.374a9.645,9.645,0,0,1,2.933-7.113,9.684,9.684,0,0,1,7.5-3.234H71.594a9.338,9.338,0,0,1,7.171,3.234,9.2,9.2,0,0,1,3.259,7.113v10.348a10.022,10.022,0,0,0,2.933,7.436,10.19,10.19,0,0,0,7.5,2.912h10.43a9.337,9.337,0,0,1,7.171,3.232,9.2,9.2,0,0,1,3.259,7.115V-32.859a9.532,9.532,0,0,1-3.259,7.437,9.8,9.8,0,0,1-7.171,2.91H92.455a10.189,10.189,0,0,1-7.5-2.91,10.025,10.025,0,0,1-2.933-7.437V-136.33a9.2,9.2,0,0,0-3.259-7.115,9.337,9.337,0,0,0-7.171-3.232H29.873a9.682,9.682,0,0,0-7.5,3.232,9.647,9.647,0,0,0-2.933,7.115V-32.859a9.53,9.53,0,0,1-3.26,7.437,9.8,9.8,0,0,1-7.17,2.91Z" transform="translate(11.848 177.721)"/></g><g transform="translate(406.784 228.804)"><path d="M-1.418-22.511a10.191,10.191,0,0,1-7.5-2.91,10.025,10.025,0,0,1-2.933-7.437V-74.248a9.646,9.646,0,0,1,2.933-7.114,9.679,9.679,0,0,1,7.5-3.232H9.013a9.8,9.8,0,0,0,7.17-2.912,9.527,9.527,0,0,0,3.26-7.436v-10.347a9.646,9.646,0,0,1,2.933-7.114,9.678,9.678,0,0,1,7.5-3.232H71.594a9.8,9.8,0,0,0,7.171-2.912,9.529,9.529,0,0,0,3.259-7.436v-20.695H-1.418a10.192,10.192,0,0,1-7.5-2.912,10.022,10.022,0,0,1-2.933-7.436v-10.348a9.645,9.645,0,0,1,2.933-7.113,9.684,9.684,0,0,1,7.5-3.234h104.3a9.338,9.338,0,0,1,7.171,3.234,9.2,9.2,0,0,1,3.259,7.113v41.391a9.529,9.529,0,0,1-3.259,7.436,9.8,9.8,0,0,1-7.171,2.912H92.455a9.678,9.678,0,0,0-7.5,3.232,9.646,9.646,0,0,0-2.933,7.114v10.347a9.529,9.529,0,0,1-3.259,7.436,9.8,9.8,0,0,1-7.171,2.912H29.873a9.678,9.678,0,0,0-7.5,3.232,9.646,9.646,0,0,0-2.933,7.114V-63.9a10.025,10.025,0,0,0,2.933,7.437,10.193,10.193,0,0,0,7.5,2.91h73.012a9.335,9.335,0,0,1,7.171,3.233,9.2,9.2,0,0,1,3.259,7.114v10.347a9.532,9.532,0,0,1-3.259,7.437,9.8,9.8,0,0,1-7.171,2.91Z" transform="translate(11.848 177.721)"/></g><g transform="translate(542.378 228.804)"><path d="M-1.418-22.511a10.191,10.191,0,0,1-7.5-2.91,10.025,10.025,0,0,1-2.933-7.437V-167.374a9.645,9.645,0,0,1,2.933-7.113,9.684,9.684,0,0,1,7.5-3.234H9.013a9.338,9.338,0,0,1,7.171,3.234,9.2,9.2,0,0,1,3.259,7.113V-32.859a9.532,9.532,0,0,1-3.259,7.437,9.8,9.8,0,0,1-7.171,2.91Z" transform="translate(11.848 177.721)"/></g><g transform="translate(584.099 228.804)"><path d="M-16.569-4.971A9.34,9.34,0,0,0-23.739-8.2H-34.166a10.185,10.185,0,0,1-7.5-2.906A10.023,10.023,0,0,1-44.6-18.547V-28.9a9.2,9.2,0,0,0-3.257-7.112,9.34,9.34,0,0,0-7.17-3.232H-96.754a9.7,9.7,0,0,0-7.5,3.232,9.667,9.667,0,0,0-2.931,7.112v10.352a9.537,9.537,0,0,1-3.257,7.437,9.794,9.794,0,0,1-7.17,2.906h-10.436a9.7,9.7,0,0,0-7.5,3.232,9.641,9.641,0,0,0-2.931,7.12V74.575a10.019,10.019,0,0,0,2.931,7.438,10.2,10.2,0,0,0,7.5,2.915h10.436a9.313,9.313,0,0,1,7.17,3.231,9.2,9.2,0,0,1,3.257,7.112v10.344a10.05,10.05,0,0,0,2.931,7.438,10.2,10.2,0,0,0,7.5,2.915h41.726a9.8,9.8,0,0,0,7.17-2.915,9.538,9.538,0,0,0,3.257-7.438V95.272a9.645,9.645,0,0,1,2.939-7.112,9.659,9.659,0,0,1,7.5-3.231h10.428a9.8,9.8,0,0,0,7.17-2.915,9.513,9.513,0,0,0,3.257-7.438V2.149a9.179,9.179,0,0,0-3.257-7.12M-44.6,74.575a9.538,9.538,0,0,1-3.257,7.438,9.8,9.8,0,0,1-7.17,2.915H-96.754a10.2,10.2,0,0,1-7.5-2.915,10.05,10.05,0,0,1-2.931-7.438V2.149a9.672,9.672,0,0,1,2.931-7.12,9.7,9.7,0,0,1,7.5-3.232h41.726a9.34,9.34,0,0,1,7.17,3.232A9.2,9.2,0,0,1-44.6,2.149Z" transform="translate(138.472 39.244)"/></g><g transform="translate(615.389 259.845)"><path d="M-8.506-1.5V70.924a9.541,9.541,0,0,1-3.257,7.438,9.8,9.8,0,0,1-7.17,2.914H-60.658a10.2,10.2,0,0,1-7.5-2.914,10.053,10.053,0,0,1-2.93-7.438V-1.5a9.673,9.673,0,0,1,2.93-7.12,9.7,9.7,0,0,1,7.5-3.232h41.726a9.34,9.34,0,0,1,7.17,3.232A9.206,9.206,0,0,1-8.506-1.5" transform="translate(71.086 11.854)" fill="#b2fefe"/></g></g></svg>