<?xml version="1.0" encoding="UTF-8"?>
<svg id="Livello_1" data-name="Livello 1" xmlns="http://www.w3.org/2000/svg" xmlns:xlink="http://www.w3.org/1999/xlink" viewBox="0 0 504.54 792.82">
  <defs>
    <style>
      .cls-1 {
        fill: none;
      }

      .cls-2 {
        clip-path: url(#clippath);
      }

      .cls-3 {
        fill: #45b8aa;
      }

      .cls-4 {
        fill: #77c3ad;
      }
    </style>
    <clipPath id="clippath">
      <rect class="cls-1" x="0" y="0" width="504.52" height="792.8"/>
    </clipPath>
  </defs>
  <g class="cls-2">
    <g id="Raggruppa_20" data-name="Raggruppa 20">
      <path id="Tracciato_22" data-name="Tracciato 22" d="M432.46,264.27c.18,6.58-2.57,12.91-7.5,17.27-4.34,4.44-10.32,6.89-16.53,6.77h-96.09c-12.78,.49-23.55-9.48-24.04-22.26-.02-.59-.02-1.18,0-1.77v-24.02c-.12-6.2,2.33-12.18,6.77-16.51,4.36-4.94,10.68-7.69,17.27-7.5h96.09c12.89,.86,23.17,11.12,24.04,24.02v24.02Zm64.57-184.67c-4.12-4.84-10.18-7.59-16.53-7.52h-24.02c-12.76,.51-23.51-9.42-24.02-22.18-.02-.61-.02-1.22,0-1.84V24.04c.07-6.35-2.68-12.4-7.5-16.53C420.83,2.69,414.77-.06,408.42,0H240.27c-6.58-.18-12.91,2.57-17.27,7.5-4.44,4.34-6.89,10.33-6.77,16.53v24.02c-.5,12.77,9.45,23.52,22.22,24.02,.6,.02,1.21,.02,1.81,0h168.15c6.35-.07,12.41,2.69,16.53,7.52,4.82,4.12,7.57,10.17,7.5,16.52v24.01c.18,6.58-2.57,12.91-7.5,17.27-4.34,4.44-10.32,6.89-16.53,6.77H240.27c-6.58-.19-12.91,2.56-17.27,7.5-4.44,4.34-6.89,10.31-6.77,16.52v96.09c-.49,12.78,9.48,23.55,22.26,24.03,.59,.02,1.18,.02,1.77,0h24.02c12.89,.87,23.15,11.13,24.02,24.02v24.02c-.49,12.78,9.47,23.55,22.26,24.04,.59,.02,1.19,.02,1.78,0h168.15c6.21,.12,12.19-2.33,16.53-6.77,4.94-4.36,7.69-10.69,7.5-17.27V96.12c.07-6.34-2.68-12.39-7.5-16.52"/>
      <path id="Tracciato_23" data-name="Tracciato 23" class="cls-3" d="M432.46,240.25v24.02c.18,6.58-2.57,12.91-7.5,17.27-4.34,4.44-10.33,6.89-16.53,6.77h-96.09c-12.78,.49-23.55-9.47-24.04-22.26-.02-.59-.02-1.19,0-1.78v-24.02c-.12-6.2,2.33-12.18,6.77-16.51,4.36-4.94,10.68-7.69,17.27-7.5h96.09c12.89,.86,23.17,11.12,24.04,24.02"/>
      <path id="Tracciato_24" data-name="Tracciato 24" d="M216.23,552.56c.18,6.59-2.57,12.92-7.52,17.27-4.33,4.44-10.31,6.89-16.51,6.77H96.12c-12.78,.49-23.55-9.48-24.04-22.26-.02-.59-.02-1.18,0-1.78v-168.15c-.12-6.21,2.33-12.19,6.77-16.53,4.36-4.94,10.68-7.68,17.27-7.5h96.08c6.34-.07,12.39,2.68,16.51,7.5,4.84,4.12,7.59,10.18,7.52,16.53v168.15Zm64.55-184.69c-4.12-4.82-10.17-7.57-16.51-7.5h-24.02c-12.75,.51-23.5-9.4-24.02-22.15-.03-.62-.03-1.24,0-1.86v-24.04c.07-6.35-2.69-12.4-7.52-16.51-4.12-4.82-10.17-7.57-16.51-7.5H96.12c-6.58-.18-12.91,2.57-17.27,7.5-4.44,4.33-6.89,10.31-6.77,16.51v24.04c.18,6.58-2.57,12.91-7.5,17.27-4.34,4.43-10.31,6.87-16.51,6.75H24.04c-6.58-.18-12.91,2.57-17.27,7.5C2.33,372.22-.12,378.2,0,384.41v384.36c-.12,6.21,2.33,12.19,6.77,16.54,4.36,4.93,10.68,7.68,17.27,7.5h24.02c6.34,.06,12.39-2.68,16.51-7.5,4.83-4.13,7.57-10.18,7.5-16.54v-96.09c-.5-12.77,9.45-23.52,22.22-24.02,.61-.02,1.21-.02,1.82,0h96.08c6.2,.12,12.18-2.33,16.51-6.77,4.95-4.35,7.71-10.68,7.52-17.27v-24.02c-.13-6.2,2.32-12.18,6.75-16.51,4.35-4.94,10.68-7.69,17.27-7.5h24.02c6.2,.12,12.18-2.33,16.51-6.77,4.95-4.35,7.71-10.68,7.52-17.27v-168.15c.07-6.35-2.69-12.41-7.52-16.53"/>
      <path id="Tracciato_25" data-name="Tracciato 25" class="cls-4" d="M216.23,384.41v168.15c.18,6.59-2.57,12.92-7.52,17.27-4.34,4.44-10.31,6.89-16.51,6.77H96.12c-12.78,.49-23.55-9.47-24.04-22.26-.02-.59-.02-1.19,0-1.78v-168.15c-.12-6.21,2.33-12.19,6.77-16.53,4.36-4.94,10.69-7.68,17.27-7.5h96.08c6.34-.07,12.39,2.68,16.51,7.5,4.84,4.12,7.59,10.18,7.52,16.53"/>
    </g>
  </g>
</svg>